:version 1.10
:name ASF
:units
  mass 1
  length 1
  angle deg
:documentation
  ASF file generated by Kaydara
:root
  axis xyz
  order  tx ty tz rx ry rz
  position 0 0 0
  orientation 0 0 0
:bonedata
  begin
    id 1
    name RightUpLegDummy
    direction -1 2.30186e-007 8.31532e-007
    length 4.04083
    axis 0 0 0 xyz
  end
  begin
    id 2
    name RightUpLeg
    direction -0.000919234 -0.999985 0.00544864
    length 17.4221
    axis -3.80308 -0.00076134 -0.0523649 xyz
    dof rx ry rz
  end
  begin
    id 3
    name RightLeg
    direction -0.000919271 -0.999984 -0.00555045
    length 17.1239
    axis 4.00314 0.0181274 -0.183583 xyz
    dof rx ry rz
  end
  begin
    id 4
    name RightFoot
    direction -2.57843e-005 -4.04509e-007 1
    length 6.72091
    axis 8.18909e-005 -0.122003 -0.403008 xyz
    dof rx ry rz
  end
  begin
    id 5
    name RightToes
    direction 0.00116825 -0.014069 0.9999
    length 3.85082
    axis 0.000514414 0.540638 -0.356797 xyz
    dof rx ry rz
  end
  begin
    id 6
    name SpineDummy
    direction 0.0168869 0.966876 -0.254689
    length 6.99894
    axis 0 0 0 xyz
  end
  begin
    id 7
    name Spine
    direction -0.0132008 0.999903 0.00446247
    length 11.1999
    axis -0.00148109 0.00725429 0.756411 xyz
    dof rx ry rz
  end
  begin
    id 8
    name Spine1
    direction 0 0 0
    length 0
    axis -0.000934958 0.0245693 1.46543 xyz
    dof rx ry rz
  end
  begin
    id 9
    name HEadDummy
    direction -0.0255732 0.999672 0.00128215
    length 3.43865
    axis -0.000934958 0.0245693 1.46543 xyz
  end
  begin
    id 10
    name HEad
    direction -0.0472656 0.980052 0.19304
    length 5.12695
    axis -0.000934954 0.0245693 1.46543 xyz
    dof rx ry rz
  end
  begin
    id 11
    name LeftShoulder1Dummy
    direction 0.953098 0.301717 -0.023914
    length 3.68488
    axis -0.000934958 0.0245693 1.46543 xyz
  end
  begin
    id 12
    name LeftShoulder1
    direction 0.962466 0.271167 0.0112566
    length 3.13809
    axis -0.000934958 0.0245693 1.46543 xyz
    dof rx ry rz
  end
  begin
    id 13
    name LeftArm
    direction 0.999943 0.00455037 -0.00961766
    length 11.3419
    axis -23.1648 0.685459 1.22814 xyz
    dof rx ry rz
  end
  begin
    id 14
    name LeftForeArm
    direction 0.999332 0.0131969 0.0340885
    length 8.70632
    axis -9.90633 0.618216 0.0826942 xyz
    dof rx ry rz
  end
  begin
    id 15
    name LeftHand
    direction 0.994373 -0.0366703 0.0993905
    length 5.32135
    axis 0.00675269 0.680415 0.445699 xyz
    dof rx ry rz
  end
  begin
    id 16
    name RightShoulderDummy
    direction -0.967298 0.252589 -0.0230903
    length 3.68488
    axis -0.000934958 0.0245693 1.46543 xyz
  end
  begin
    id 17
    name RightShoulder
    direction -0.975062 0.221602 0.0120823
    length 3.13809
    axis 0.216257 0.0246515 1.45863 xyz
    dof rx ry rz
  end
  begin
    id 18
    name RightArm
    direction -0.99886 -0.00851186 -0.0469687
    length 10.3947
    axis -23.196 0.23503 -0.532632 xyz
    dof rx ry rz
  end
  begin
    id 19
    name RightForeArm
    direction -0.99909 0.00114866 0.0426317
    length 8.68355
    axis -9.91764 -0.134943 0.610517 xyz
    dof rx ry rz
  end
  begin
    id 20
    name RightHand
    direction -0.992888 -0.0489538 0.10852
    length 5.28593
    axis -0.00275396 -0.197403 0.246414 xyz
    dof rx ry rz
  end
  begin
    id 21
    name LeftUpLegDummy
    direction 1 -2.30186e-007 -8.31532e-007
    length 4.04083
    axis 0 0 0 xyz
  end
  begin
    id 22
    name LeftUpLeg
    direction -0.000920097 -1 2.79241e-006
    length 17.4221
    axis -3.48782 0.00143434 -0.0532288 xyz
    dof rx ry rz
  end
  begin
    id 23
    name LeftLeg
    direction -0.000920097 -1 2.7912e-006
    length 17.1239
    axis 3.68162 -0.00806512 -0.0529896 xyz
    dof rx ry rz
  end
  begin
    id 24
    name LeftFoot
    direction -2.57845e-005 -3.987e-007 1
    length 6.72091
    axis 3.02372e-005 -0.00147829 -0.214229 xyz
    dof rx ry rz
  end
  begin
    id 25
    name LeftToes
    direction 0.00813577 -0.00488255 0.999955
    length 3.85048
    axis 3.89895e-005 -0.0014783 -0.214229 xyz
    dof rx ry rz
  end
:hierarchy
  begin
    root RightUpLegDummy SpineDummy LeftUpLegDummy
    RightUpLegDummy RightUpLeg
    RightUpLeg RightLeg
    RightLeg RightFoot
    RightFoot RightToes
    SpineDummy Spine
    Spine Spine1
    Spine1 HEadDummy LeftShoulder1Dummy RightShoulderDummy
    HEadDummy HEad
    LeftShoulder1Dummy LeftShoulder1
    LeftShoulder1 LeftArm
    LeftArm LeftForeArm
    LeftForeArm LeftHand
    RightShoulderDummy RightShoulder
    RightShoulder RightArm
    RightArm RightForeArm
    RightForeArm RightHand
    LeftUpLegDummy LeftUpLeg
    LeftUpLeg LeftLeg
    LeftLeg LeftFoot
    LeftFoot LeftToes
  end

:SAMPLES-PER-SECOND 30
:FULLY-SPECIFIED
:DEGREES
46
root  -17.512 34.7919 -14.7216 -173.535 2.90775 179.626
RightUpLeg  -4.26235 -12.1101 -2.73077
RightLeg  3.09569 -3.44424 0.0363892
RightFoot  6.1729 0.0419157 -0.194899
RightToes  -25.383 -0.12073 -0.218631
Spine  -3.22125 0.108224 -0.891964
Spine1  -6.0246 0.415607 -0.991052
HEad  -62.5111 -7.2561 11.6754
LeftShoulder1  -1.94126e-019 -3.10601e-018 -2.51263e-017
LeftArm  14.8357 -23.795 -78.6128
LeftForeArm  160.929 -59.1243 -162.396
LeftHand  -0.817564 0.683241 20.1305
RightShoulder  -4.96962e-017 0 -2.36833e-017
RightArm  8.92614 18.958 79.132
RightForeArm  -176.942 60.7121 163.458
RightHand  0.259937 -6.28027 -32.7246
LeftUpLeg  -5.53021 0.573887 2.8383
LeftLeg  8.55544 16.137 1.35641
LeftFoot  3.94088 -0.0402659 1.33437
LeftToes  -20.3785 1.7763e-006 6.54387e-008
47
root  -17.5222 34.7915 -14.7463 -173.548 3.00845 179.652
RightUpLeg  -4.06512 -12.3527 -2.74519
RightLeg  2.77075 -3.09649 0.0502677
RightFoot  6.29991 0.0398339 -0.165146
RightToes  -25.4863 -0.120729 -0.218947
Spine  -3.18561 0.170664 -0.830212
Spine1  -5.99434 0.534569 -0.861327
HEad  -62.2529 -8.19965 11.4173
LeftShoulder1  -1.94126e-019 -3.10601e-018 -2.51263e-017
LeftArm  21.3871 -24.5611 -79.3951
LeftForeArm  158.287 -59.7645 -161.734
LeftHand  -0.459558 3.14296 23.4915
RightShoulder  -4.96962e-017 0 -2.36833e-017
RightArm  16.3059 19.9754 79.5882
RightForeArm  -173.557 61.6244 163.154
RightHand  0.498353 -6.83267 -37.9753
LeftUpLeg  -5.44903 0.710764 2.84617
LeftLeg  8.53329 16.0876 1.34619
LeftFoot  3.89883 -0.0394046 1.31866
LeftToes  -20.5258 1.7763e-006 6.54387e-008
48
root  -17.5364 34.7878 -14.7372 -173.549 3.00894 179.654
RightUpLeg  -3.94926 -12.3352 -2.76338
RightLeg  2.51046 -3.11743 0.0647137
RightFoot  6.41388 0.0407059 -0.177609
RightToes  -25.623 -0.120729 -0.219231
Spine  -3.02376 0.215439 -0.804373
Spine1  -5.62918 0.619564 -0.823001
HEad  -63.6207 -8.79725 11.9058
LeftShoulder1  -1.94126e-019 -3.10601e-018 -2.51263e-017
LeftArm  17.4987 -23.0675 -77.7816
LeftForeArm  163.708 -58.5881 -162.985
LeftHand  -1.01737 -0.74971 19.2795
RightShoulder  -4.96962e-017 0 -2.36833e-017
RightArm  11.9498 18.9435 78.2915
RightForeArm  -169.46 59.754 164.699
RightHand  -0.511151 -3.48152 -30.543
LeftUpLeg  -5.47743 0.570062 2.81634
LeftLeg  8.57771 16.266 1.37324
LeftFoot  3.82601 -0.0389745 1.30856
LeftToes  -20.2872 1.7763e-006 6.54387e-008
49
root  -17.5428 34.7862 -14.7309 -173.621 2.96159 179.611
RightUpLeg  -3.76894 -12.5443 -2.82897
RightLeg  2.27976 -2.97357 0.0736767
RightFoot  6.48502 0.0401361 -0.169465
RightToes  -25.6203 -0.120729 -0.219483
Spine  -3.06203 0.25814 -0.814313
Spine1  -5.65275 0.711164 -0.852822
HEad  -64.9312 -9.3848 12.4276
LeftShoulder1  -1.94126e-019 -3.10601e-018 -2.51263e-017
LeftArm  11.837 -21.6861 -76.0387
LeftForeArm  164.689 -57.9528 -163.456
LeftHand  -1.03469 -0.721321 19.6884
RightShoulder  -4.96962e-017 0 -2.36833e-017
RightArm  5.63646 17.2401 76.2515
RightForeArm  -170.104 59.0418 165.061
RightHand  -0.457038 -3.71785 -31.1654
LeftUpLeg  -5.32942 0.474296 2.76425
LeftLeg  8.37425 16.3071 1.31915
LeftFoot  3.93539 -0.041453 1.34269
LeftToes  -20.4814 1.7763e-006 6.54387e-008
50
root  -17.5503 34.7854 -14.7348 -173.652 2.83403 179.568
RightUpLeg  -3.61752 -12.9149 -2.89624
RightLeg  2.09121 -2.73569 0.0767867
RightFoot  6.54386 0.0387149 -0.149155
RightToes  -25.7262 -0.120729 -0.219705
Spine  -3.16897 0.262685 -0.833464
Spine1  -5.83868 0.726093 -0.897971
HEad  -65.6182 -9.74547 12.5932
LeftShoulder1  -1.94126e-019 -3.10601e-018 -2.51263e-017
LeftArm  6.0223 -19.9696 -74.322
LeftForeArm  162.486 -57.4531 -163.566
LeftHand  -0.871207 0.795445 21.9378
RightShoulder  -4.96962e-017 0 -2.36833e-017
RightArm  -1.17748 15.601 74.6054
RightForeArm  -174.241 59.0152 164.733
RightHand  0.113981 -5.77093 -33.0207
LeftUpLeg  -5.18825 0.715366 2.72714
LeftLeg  8.09702 15.9271 1.21271
LeftFoot  4.0062 -0.0412271 1.33391
LeftToes  -20.5481 1.7763e-006 6.54387e-008
51
root  -17.5549 34.7891 -14.7334 -173.608 2.75591 179.529
RightUpLeg  -3.56557 -12.998 -2.93281
RightLeg  1.91631 -2.71781 0.0845495
RightFoot  6.64665 0.0390731 -0.154273
RightToes  -25.8551 -0.120729 -0.219898
Spine  -3.26129 0.188812 -0.812102
Spine1  -6.00375 0.579005 -0.85668
HEad  -65.7347 -9.74465 12.2614
LeftShoulder1  -1.94126e-019 -3.10601e-018 -2.51263e-017
LeftArm  3.32017 -19.0713 -74.068
LeftForeArm  161.183 -57.7121 -163.298
LeftHand  -0.70048 1.99267 23.7657
RightShoulder  -4.96962e-017 0 -2.36833e-017
RightArm  -3.43623 15.9133 75.1708
RightForeArm  -178.988 60.2901 163.538
RightHand  0.593463 -7.27703 -35.0729
LeftUpLeg  -5.06794 0.807363 2.69124
LeftLeg  7.71264 15.7614 1.09552
LeftFoot  4.12985 -0.0429535 1.35473
LeftToes  -20.427 1.7763e-006 6.54387e-008
52
root  -17.5617 34.7962 -14.7299 -173.579 2.77567 179.48
RightUpLeg  -3.49937 -12.9492 -2.98883
RightLeg  1.70329 -2.73546 0.0952247
RightFoot  6.76487 0.0394389 -0.159501
RightToes  -25.9341 -0.120729 -0.220062
Spine  -3.35574 0.208007 -0.820287
Spine1  -6.19953 0.628149 -0.863839
HEad  -65.4722 -9.8867 11.9396
LeftShoulder1  -1.94126e-019 -3.10601e-018 -2.51263e-017
LeftArm  7.67342 -19.6712 -76.0618
LeftForeArm  160.617 -59.0959 -162.376
LeftHand  -0.759303 1.55695 22.8664
RightShoulder  -4.96962e-017 0 -2.36833e-017
RightArm  1.24476 17.1706 76.8312
RightForeArm  -178.666 61.6687 162.643
RightHand  0.511836 -7.061 -34.2446
LeftUpLeg  -4.83552 0.610261 2.61783
LeftLeg  7.17533 15.9964 0.962861
LeftFoot  4.33918 -0.0484943 1.43419
LeftToes  -20.3255 1.7763e-006 6.54387e-008
53
root  -17.5687 34.8009 -14.743 -173.569 2.78094 179.481
RightUpLeg  -3.36774 -13.1411 -3.00473
RightLeg  1.44831 -2.57517 0.101078
RightFoot  6.88807 0.0383345 -0.143717
RightToes  -25.9591 -0.120729 -0.2202
Spine  -3.34499 0.265249 -0.833762
Spine1  -6.22548 0.727283 -0.86635
HEad  -65.3651 -10.2465 11.9965
LeftShoulder1  -1.94126e-019 -3.10601e-018 -2.51263e-017
LeftArm  17.4249 -21.0122 -79.0551
LeftForeArm  158.571 -60.5765 -161.176
LeftHand  -0.830084 0.347127 19.1085
RightShoulder  -4.96962e-017 0 -2.36833e-017
RightArm  10.3732 18.9651 78.6766
RightForeArm  -176.695 63.1608 161.743
RightHand  0.00281957 -5.39831 -30.841
LeftUpLeg  -4.55992 0.568306 2.60162
LeftLeg  6.63207 16.0491 0.815393
LeftFoot  4.52637 -0.0527764 1.49355
LeftToes  -20.4706 1.7763e-006 6.54387e-008
54
root  -17.5797 34.8033 -14.7544 -173.548 2.49873 179.442
RightUpLeg  -3.26504 -13.5778 -3.06145
RightLeg  1.33476 -2.40051 0.0989809
RightFoot  6.9045 0.0369275 -0.12361
RightToes  -25.9714 -0.120729 -0.220312
Spine  -3.24523 0.202046 -0.894372
Spine1  -6.08252 0.568137 -0.949423
HEad  -65.7167 -10.4578 12.4593
LeftShoulder1  -1.94126e-019 -3.10601e-018 -2.51263e-017
LeftArm  22.4634 -20.7691 -80.6114
LeftForeArm  157.025 -60.3506 -161.203
LeftHand  -0.539547 2.76097 23.6082
RightShoulder  -4.96962e-017 0 -2.36833e-017
RightArm  13.5668 19.0497 79.441
RightForeArm  -174.844 62.8469 162.16
RightHand  0.269034 -6.2955 -33.211
LeftUpLeg  -4.47792 0.328513 2.55178
LeftLeg  6.35367 16.0256 0.73724
LeftFoot  4.63718 -0.0550647 1.52149
LeftToes  -20.4432 1.7763e-006 6.54387e-008
55
root  -17.5933 34.8005 -14.7308 -173.586 2.14005 179.378
RightUpLeg  -3.22352 -13.7419 -3.14172
RightLeg  1.37047 -2.58664 0.105026
RightFoot  6.88195 0.038646 -0.14817
RightToes  -26.0338 -0.120729 -0.220399
Spine  -3.08689 0.100237 -0.923762
Spine1  -5.72568 0.353489 -1.02375
HEad  -67.1583 -10.4341 12.9579
LeftShoulder1  -1.94126e-019 -3.10601e-018 -2.51263e-017
LeftArm  15.939 -18.7819 -79.5746
LeftForeArm  164.188 -58.4356 -163.118
LeftHand  -0.970658 -0.917482 17.9388
RightShoulder  -4.96962e-017 0 -2.36833e-017
RightArm  7.06047 17.8808 78.516
RightForeArm  -170.537 60.9524 163.853
RightHand  -0.297362 -4.27297 -30.3442
LeftUpLeg  -4.57547 0.311071 2.50017
LeftLeg  6.40618 15.6909 0.736438
LeftFoot  4.72338 -0.0558112 1.51474
LeftToes  -20.7994 1.7763e-006 6.54387e-008
56
root  -17.6016 34.7967 -14.7159 -173.599 1.89166 179.338
RightUpLeg  -3.22695 -13.853 -3.18707
RightLeg  1.439 -2.72046 0.107203
RightFoot  6.81744 0.0396342 -0.162292
RightToes  -25.9256 -0.120729 -0.220461
Spine  -3.13321 0.0729304 -0.963967
Spine1  -5.76272 0.312138 -1.12054
HEad  -68.6191 -10.5242 13.1501
LeftShoulder1  -1.94126e-019 -3.10601e-018 -2.51263e-017
LeftArm  7.8415 -17.1372 -76.7846
LeftForeArm  163.167 -56.699 -164.06
LeftHand  -0.925307 -0.301144 18.9073
RightShoulder  -4.96962e-017 0 -2.36833e-017
RightArm  -2.73733 15.7159 75.7175
RightForeArm  -172.517 59.1003 164.823
RightHand  -0.0807544 -5.09048 -30.909
LeftUpLeg  -4.68287 0.505189 2.48333
LeftLeg  6.50034 15.2346 0.740297
LeftFoot  4.6849 -0.0532529 1.46538
LeftToes  -20.6991 1.7763e-006 6.54387e-008
